<mxfile host="app.diagrams.net" agent="Mozilla/5.0 (X11; Linux x86_64; rv:129.0) Gecko/20100101 Firefox/129.0" version="24.7.7">
  <diagram name="Page-1" id="q4OQctk6I66mqDgbaN3u">
    <mxGraphModel dx="1366" dy="746" grid="1" gridSize="10" guides="1" tooltips="1" connect="1" arrows="1" fold="1" page="1" pageScale="1" pageWidth="850" pageHeight="1100" math="0" shadow="0">
      <root>
        <mxCell id="0" />
        <mxCell id="1" parent="0" />
        <mxCell id="eQ0Gnnko_MOFdsehm8p5-1" value="Code intialization" style="rounded=0;whiteSpace=wrap;html=1;fillColor=#dae8fc;strokeColor=#6c8ebf;" vertex="1" parent="1">
          <mxGeometry x="360" y="20" width="120" height="60" as="geometry" />
        </mxCell>
        <mxCell id="eQ0Gnnko_MOFdsehm8p5-4" value="" style="endArrow=classic;html=1;rounded=0;" edge="1" parent="1" source="eQ0Gnnko_MOFdsehm8p5-3">
          <mxGeometry width="50" height="50" relative="1" as="geometry">
            <mxPoint x="420" y="380" as="sourcePoint" />
            <mxPoint x="420" y="160" as="targetPoint" />
          </mxGeometry>
        </mxCell>
        <mxCell id="eQ0Gnnko_MOFdsehm8p5-29" style="edgeStyle=orthogonalEdgeStyle;rounded=0;orthogonalLoop=1;jettySize=auto;html=1;exitX=0.5;exitY=1;exitDx=0;exitDy=0;entryX=0.5;entryY=0;entryDx=0;entryDy=0;" edge="1" parent="1" source="eQ0Gnnko_MOFdsehm8p5-5" target="eQ0Gnnko_MOFdsehm8p5-28">
          <mxGeometry relative="1" as="geometry" />
        </mxCell>
        <mxCell id="eQ0Gnnko_MOFdsehm8p5-5" value="Thread 1" style="rounded=0;whiteSpace=wrap;html=1;fillColor=#d5e8d4;strokeColor=#82b366;" vertex="1" parent="1">
          <mxGeometry x="160" y="200" width="120" height="30" as="geometry" />
        </mxCell>
        <mxCell id="eQ0Gnnko_MOFdsehm8p5-15" style="edgeStyle=orthogonalEdgeStyle;rounded=0;orthogonalLoop=1;jettySize=auto;html=1;exitX=0.5;exitY=1;exitDx=0;exitDy=0;entryX=0.5;entryY=0;entryDx=0;entryDy=0;" edge="1" parent="1" source="eQ0Gnnko_MOFdsehm8p5-6" target="eQ0Gnnko_MOFdsehm8p5-13">
          <mxGeometry relative="1" as="geometry" />
        </mxCell>
        <mxCell id="eQ0Gnnko_MOFdsehm8p5-6" value="Thread 2" style="rounded=0;whiteSpace=wrap;html=1;fillColor=#d5e8d4;strokeColor=#82b366;" vertex="1" parent="1">
          <mxGeometry x="560" y="200" width="120" height="30" as="geometry" />
        </mxCell>
        <mxCell id="eQ0Gnnko_MOFdsehm8p5-10" value="" style="endArrow=classic;html=1;rounded=0;exitX=0;exitY=1;exitDx=0;exitDy=0;" edge="1" parent="1" source="eQ0Gnnko_MOFdsehm8p5-3">
          <mxGeometry width="50" height="50" relative="1" as="geometry">
            <mxPoint x="420" y="380" as="sourcePoint" />
            <mxPoint x="280" y="200" as="targetPoint" />
          </mxGeometry>
        </mxCell>
        <mxCell id="eQ0Gnnko_MOFdsehm8p5-11" value="" style="endArrow=classic;html=1;rounded=0;exitX=1;exitY=1;exitDx=0;exitDy=0;entryX=0;entryY=0;entryDx=0;entryDy=0;" edge="1" parent="1" source="eQ0Gnnko_MOFdsehm8p5-3" target="eQ0Gnnko_MOFdsehm8p5-6">
          <mxGeometry width="50" height="50" relative="1" as="geometry">
            <mxPoint x="420" y="380" as="sourcePoint" />
            <mxPoint x="470" y="330" as="targetPoint" />
          </mxGeometry>
        </mxCell>
        <mxCell id="eQ0Gnnko_MOFdsehm8p5-22" style="edgeStyle=orthogonalEdgeStyle;rounded=0;orthogonalLoop=1;jettySize=auto;html=1;exitX=0.5;exitY=1;exitDx=0;exitDy=0;entryX=0.5;entryY=0;entryDx=0;entryDy=0;" edge="1" parent="1" source="eQ0Gnnko_MOFdsehm8p5-12" target="eQ0Gnnko_MOFdsehm8p5-20">
          <mxGeometry relative="1" as="geometry" />
        </mxCell>
        <mxCell id="eQ0Gnnko_MOFdsehm8p5-12" value="Barrier" style="rounded=0;whiteSpace=wrap;html=1;fillColor=#f8cecc;strokeColor=#b85450;" vertex="1" parent="1">
          <mxGeometry x="160" y="320" width="120" height="30" as="geometry" />
        </mxCell>
        <mxCell id="eQ0Gnnko_MOFdsehm8p5-23" style="edgeStyle=orthogonalEdgeStyle;rounded=0;orthogonalLoop=1;jettySize=auto;html=1;exitX=0.5;exitY=1;exitDx=0;exitDy=0;entryX=0.5;entryY=0;entryDx=0;entryDy=0;" edge="1" parent="1" source="eQ0Gnnko_MOFdsehm8p5-13" target="eQ0Gnnko_MOFdsehm8p5-21">
          <mxGeometry relative="1" as="geometry" />
        </mxCell>
        <mxCell id="eQ0Gnnko_MOFdsehm8p5-13" value="Barrier" style="rounded=0;whiteSpace=wrap;html=1;fillColor=#f8cecc;strokeColor=#b85450;" vertex="1" parent="1">
          <mxGeometry x="560" y="260" width="120" height="30" as="geometry" />
        </mxCell>
        <mxCell id="eQ0Gnnko_MOFdsehm8p5-16" value="" style="endArrow=classic;startArrow=classic;html=1;rounded=0;exitX=1;exitY=0.5;exitDx=0;exitDy=0;entryX=0;entryY=0.5;entryDx=0;entryDy=0;" edge="1" parent="1" source="eQ0Gnnko_MOFdsehm8p5-12" target="eQ0Gnnko_MOFdsehm8p5-13">
          <mxGeometry width="50" height="50" relative="1" as="geometry">
            <mxPoint x="420" y="300" as="sourcePoint" />
            <mxPoint x="470" y="250" as="targetPoint" />
          </mxGeometry>
        </mxCell>
        <mxCell id="eQ0Gnnko_MOFdsehm8p5-17" value="Threads wait until both reach the barrier" style="text;html=1;align=center;verticalAlign=middle;whiteSpace=wrap;rounded=0;fontSize=13;spacingTop=2;spacingBottom=2;" vertex="1" parent="1">
          <mxGeometry x="320" y="260" width="170" height="30" as="geometry" />
        </mxCell>
        <mxCell id="eQ0Gnnko_MOFdsehm8p5-18" value="" style="endArrow=classic;html=1;rounded=0;" edge="1" parent="1" source="eQ0Gnnko_MOFdsehm8p5-1" target="eQ0Gnnko_MOFdsehm8p5-3">
          <mxGeometry width="50" height="50" relative="1" as="geometry">
            <mxPoint x="420" y="80" as="sourcePoint" />
            <mxPoint x="420" y="160" as="targetPoint" />
          </mxGeometry>
        </mxCell>
        <mxCell id="eQ0Gnnko_MOFdsehm8p5-3" value="&lt;div&gt;Preparing the cameras&lt;/div&gt;&lt;div&gt;(run once for each camera)&lt;br&gt;&lt;/div&gt;" style="rounded=0;whiteSpace=wrap;html=1;fillColor=#dae8fc;strokeColor=#6c8ebf;" vertex="1" parent="1">
          <mxGeometry x="320" y="100" width="200" height="80" as="geometry" />
        </mxCell>
        <mxCell id="eQ0Gnnko_MOFdsehm8p5-26" style="edgeStyle=orthogonalEdgeStyle;rounded=0;orthogonalLoop=1;jettySize=auto;html=1;exitX=0.5;exitY=1;exitDx=0;exitDy=0;entryX=0.5;entryY=0;entryDx=0;entryDy=0;" edge="1" parent="1" source="eQ0Gnnko_MOFdsehm8p5-20" target="eQ0Gnnko_MOFdsehm8p5-24">
          <mxGeometry relative="1" as="geometry" />
        </mxCell>
        <mxCell id="eQ0Gnnko_MOFdsehm8p5-20" value="Capture image" style="rounded=0;whiteSpace=wrap;html=1;fillColor=#d5e8d4;strokeColor=#82b366;" vertex="1" parent="1">
          <mxGeometry x="160" y="380" width="120" height="30" as="geometry" />
        </mxCell>
        <mxCell id="eQ0Gnnko_MOFdsehm8p5-32" style="edgeStyle=orthogonalEdgeStyle;rounded=0;orthogonalLoop=1;jettySize=auto;html=1;exitX=0.5;exitY=1;exitDx=0;exitDy=0;entryX=0.5;entryY=0;entryDx=0;entryDy=0;" edge="1" parent="1" source="eQ0Gnnko_MOFdsehm8p5-21" target="eQ0Gnnko_MOFdsehm8p5-31">
          <mxGeometry relative="1" as="geometry" />
        </mxCell>
        <mxCell id="eQ0Gnnko_MOFdsehm8p5-21" value="Capture image" style="rounded=0;whiteSpace=wrap;html=1;fillColor=#d5e8d4;strokeColor=#82b366;" vertex="1" parent="1">
          <mxGeometry x="560" y="320" width="120" height="30" as="geometry" />
        </mxCell>
        <mxCell id="eQ0Gnnko_MOFdsehm8p5-24" value="Save image" style="rounded=0;whiteSpace=wrap;html=1;fillColor=#d5e8d4;strokeColor=#82b366;" vertex="1" parent="1">
          <mxGeometry x="160" y="440" width="120" height="30" as="geometry" />
        </mxCell>
        <mxCell id="eQ0Gnnko_MOFdsehm8p5-25" value="Save image" style="rounded=0;whiteSpace=wrap;html=1;fillColor=#d5e8d4;strokeColor=#82b366;" vertex="1" parent="1">
          <mxGeometry x="560" y="440" width="120" height="30" as="geometry" />
        </mxCell>
        <mxCell id="eQ0Gnnko_MOFdsehm8p5-30" style="edgeStyle=orthogonalEdgeStyle;rounded=0;orthogonalLoop=1;jettySize=auto;html=1;exitX=0.5;exitY=1;exitDx=0;exitDy=0;" edge="1" parent="1" source="eQ0Gnnko_MOFdsehm8p5-28" target="eQ0Gnnko_MOFdsehm8p5-12">
          <mxGeometry relative="1" as="geometry" />
        </mxCell>
        <mxCell id="eQ0Gnnko_MOFdsehm8p5-28" value="Turn on Laser" style="rounded=0;whiteSpace=wrap;html=1;fillColor=#e1d5e7;strokeColor=#9673a6;" vertex="1" parent="1">
          <mxGeometry x="160" y="260" width="120" height="30" as="geometry" />
        </mxCell>
        <mxCell id="eQ0Gnnko_MOFdsehm8p5-33" style="edgeStyle=orthogonalEdgeStyle;rounded=0;orthogonalLoop=1;jettySize=auto;html=1;exitX=0.5;exitY=1;exitDx=0;exitDy=0;entryX=0.5;entryY=0;entryDx=0;entryDy=0;" edge="1" parent="1" source="eQ0Gnnko_MOFdsehm8p5-31" target="eQ0Gnnko_MOFdsehm8p5-25">
          <mxGeometry relative="1" as="geometry" />
        </mxCell>
        <mxCell id="eQ0Gnnko_MOFdsehm8p5-31" value="Turn off Laser" style="rounded=0;whiteSpace=wrap;html=1;fillColor=#e1d5e7;strokeColor=#9673a6;" vertex="1" parent="1">
          <mxGeometry x="560" y="380" width="120" height="30" as="geometry" />
        </mxCell>
        <mxCell id="eQ0Gnnko_MOFdsehm8p5-34" value="&lt;div&gt;Join threads&lt;/div&gt;&lt;div&gt;stop data stream&lt;br&gt;&lt;/div&gt;" style="rounded=0;whiteSpace=wrap;html=1;fillColor=#dae8fc;strokeColor=#6c8ebf;" vertex="1" parent="1">
          <mxGeometry x="320" y="490" width="200" height="80" as="geometry" />
        </mxCell>
        <mxCell id="eQ0Gnnko_MOFdsehm8p5-36" value="" style="endArrow=classic;html=1;rounded=0;exitX=0;exitY=1;exitDx=0;exitDy=0;entryX=1;entryY=0;entryDx=0;entryDy=0;" edge="1" parent="1" source="eQ0Gnnko_MOFdsehm8p5-25" target="eQ0Gnnko_MOFdsehm8p5-34">
          <mxGeometry width="50" height="50" relative="1" as="geometry">
            <mxPoint x="420" y="300" as="sourcePoint" />
            <mxPoint x="470" y="250" as="targetPoint" />
          </mxGeometry>
        </mxCell>
        <mxCell id="eQ0Gnnko_MOFdsehm8p5-37" value="" style="endArrow=classic;html=1;rounded=0;entryX=0;entryY=0;entryDx=0;entryDy=0;" edge="1" parent="1" target="eQ0Gnnko_MOFdsehm8p5-34">
          <mxGeometry width="50" height="50" relative="1" as="geometry">
            <mxPoint x="280" y="470" as="sourcePoint" />
            <mxPoint x="530" y="500" as="targetPoint" />
          </mxGeometry>
        </mxCell>
      </root>
    </mxGraphModel>
  </diagram>
</mxfile>
